<?xml version="1.0" encoding="UTF-8" standalone="no"?>
<svg
   xmlns:dc="http://purl.org/dc/elements/1.1/"
   xmlns:cc="http://creativecommons.org/ns#"
   xmlns:rdf="http://www.w3.org/1999/02/22-rdf-syntax-ns#"
   xmlns:svg="http://www.w3.org/2000/svg"
   xmlns="http://www.w3.org/2000/svg"
   xmlns:xlink="http://www.w3.org/1999/xlink"
   xmlns:sodipodi="http://sodipodi.sourceforge.net/DTD/sodipodi-0.dtd"
   xmlns:inkscape="http://www.inkscape.org/namespaces/inkscape"
   inkscape:export-ydpi="31.139999"
   inkscape:export-xdpi="31.139999"
   inkscape:export-filename="/home/arpagon/arpagon@gmail.com/GraphicDesign/projects/SapianMaterialDesign/Logo_circular_wiki_2017-01-26_31dpi.png"
   sodipodi:docname="Logo_circular_python.svg"
   width="124.69889mm"
   height="124.49208mm"
   viewBox="0 0 441.84646 441.11367"
   id="svg2"
   version="1.1"
   inkscape:version="1.0.2 (e86c870879, 2021-01-15)">
  <sodipodi:namedview
     id="base"
     pagecolor="#ffffff"
     bordercolor="#666666"
     borderopacity="1.0"
     inkscape:pageopacity="0.0"
     inkscape:pageshadow="2"
     inkscape:zoom="1"
     inkscape:cx="133.58702"
     inkscape:cy="270.45586"
     inkscape:document-units="px"
     inkscape:current-layer="layer1"
     showgrid="false"
     fit-margin-top="5"
     fit-margin-left="5"
     fit-margin-right="5"
     fit-margin-bottom="5"
     inkscape:window-width="1920"
     inkscape:window-height="1048"
     inkscape:window-x="1920"
     inkscape:window-y="0"
     inkscape:window-maximized="1"
     inkscape:document-rotation="0" />
  <defs
     id="defs4">
    <linearGradient
       id="linearGradient5325"
       inkscape:collect="always">
      <stop
         id="stop5327"
         offset="0"
         style="stop-color:#000000;stop-opacity:1" />
      <stop
         id="stop5329"
         offset="1"
         style="stop-color:#000000;stop-opacity:0" />
    </linearGradient>
    <linearGradient
       inkscape:collect="always"
       id="linearGradient5198">
      <stop
         style="stop-color:#000000;stop-opacity:1;"
         offset="0"
         id="stop5200" />
      <stop
         style="stop-color:#000000;stop-opacity:0;"
         offset="1"
         id="stop5202" />
    </linearGradient>
    <clipPath
       clipPathUnits="userSpaceOnUse"
       id="clipPath5165">
      <rect
         ry="33.779934"
         y="328.42154"
         x="173.20412"
         height="405.6806"
         width="406.41339"
         id="rect5167"
         style="opacity:1;fill:#e0e0e0;fill-opacity:1;stroke:none" />
    </clipPath>
    <clipPath
       clipPathUnits="userSpaceOnUse"
       id="clipPath5194">
      <rect
         ry="33.779934"
         y="166.34505"
         x="182.77554"
         height="405.6806"
         width="406.41339"
         id="rect5196"
         style="opacity:1;fill:#e0e0e0;fill-opacity:1;stroke:none" />
    </clipPath>
    <linearGradient
       inkscape:collect="always"
       xlink:href="#linearGradient5198"
       id="linearGradient5204"
       x1="341.43155"
       y1="322.08112"
       x2="555.58392"
       y2="542.29437"
       gradientUnits="userSpaceOnUse" />
    <linearGradient
       gradientUnits="userSpaceOnUse"
       y2="497"
       x2="682"
       y1="246"
       x1="440"
       id="linearGradient5331"
       xlink:href="#linearGradient5325"
       inkscape:collect="always" />
    <filter
       height="1.1181884"
       y="-0.059094191"
       width="1.1219673"
       x="-0.060983624"
       id="filter5545"
       style="color-interpolation-filters:sRGB"
       inkscape:collect="always">
      <feGaussianBlur
         id="feGaussianBlur5547"
         stdDeviation="7.3904545"
         inkscape:collect="always" />
    </filter>
    <filter
       height="1.2366008"
       y="-0.11830041"
       width="1.2434983"
       x="-0.12174914"
       id="filter5549"
       style="color-interpolation-filters:sRGB"
       inkscape:collect="always">
      <feGaussianBlur
         id="feGaussianBlur5551"
         stdDeviation="7.3093913"
         inkscape:collect="always" />
    </filter>
    <filter
       height="1.1345214"
       y="-0.067260692"
       width="1.1342788"
       x="-0.067139417"
       id="filter4487"
       style="color-interpolation-filters:sRGB"
       inkscape:collect="always">
      <feGaussianBlur
         id="feGaussianBlur4489"
         stdDeviation="11.369316"
         inkscape:collect="always" />
    </filter>
    <clipPath
       id="clipPath4164"
       clipPathUnits="userSpaceOnUse">
      <rect
         ry="177.38446"
         y="191.80089"
         x="208.27737"
         height="354.76892"
         width="355.40973"
         id="rect4166"
         style="opacity:1;fill:#e0e0e0;fill-opacity:1;stroke:none" />
    </clipPath>
    <clipPath
       id="clipPath4170"
       clipPathUnits="userSpaceOnUse">
      <rect
         ry="177.38446"
         y="191.80089"
         x="208.27737"
         height="354.76892"
         width="355.40973"
         id="rect4172"
         style="opacity:1;fill:#e0e0e0;fill-opacity:1;stroke:none" />
    </clipPath>
    <clipPath
       clipPathUnits="userSpaceOnUse"
       id="clipPath5228">
      <rect
         ry="177.38446"
         y="353.87738"
         x="198.70595"
         height="354.76892"
         width="355.40973"
         id="rect5230"
         style="opacity:1;fill:#3366cc;fill-opacity:1;stroke:none;stroke-width:0.99999994" />
    </clipPath>
    <clipPath
       clipPathUnits="userSpaceOnUse"
       id="clipPath1065">
      <rect
         ry="177.38446"
         y="353.87738"
         x="198.70595"
         height="354.76892"
         width="355.40973"
         id="rect1067"
         style="opacity:1;fill:#3366cc;fill-opacity:1;stroke:none;stroke-width:0.99999994" />
    </clipPath>
    <clipPath
       clipPathUnits="userSpaceOnUse"
       id="clipPath7822">
      <rect
         ry="189.21008"
         y="46.050537"
         x="46.09959"
         height="378.42017"
         width="379.1037"
         id="rect7824"
         style="opacity:1;fill:#3366cc;fill-opacity:1;stroke:none;stroke-width:1.0666666" />
    </clipPath>
    <clipPath
       clipPathUnits="userSpaceOnUse"
       id="clipPath2653">
      <rect
         ry="177.38446"
         y="353.87738"
         x="198.70595"
         height="354.76892"
         width="355.40973"
         id="rect2655"
         style="opacity:1;fill:#3366cc;fill-opacity:1;stroke:none;stroke-width:0.99999994" />
    </clipPath>
    <clipPath
       clipPathUnits="userSpaceOnUse"
       id="clipPath1728">
      <rect
         style="opacity:1;fill:#3366cc;fill-opacity:1;stroke:none;stroke-width:1"
         id="rect1730"
         width="355.40973"
         height="354.76892"
         x="198.70595"
         y="353.87738"
         ry="177.38446" />
    </clipPath>
    <clipPath
       clipPathUnits="userSpaceOnUse"
       id="clipPath2120">
      <rect
         style="opacity:1;fill:#35855d;fill-opacity:1;stroke:none;stroke-width:1"
         id="rect2122"
         width="355.40973"
         height="354.76892"
         x="198.70595"
         y="353.87738"
         ry="177.38446" />
    </clipPath>
    <filter
       inkscape:collect="always"
       style="color-interpolation-filters:sRGB"
       id="filter1170"
       x="-0.028817977"
       width="1.057636"
       y="-0.028817977"
       height="1.057636">
      <feGaussianBlur
         inkscape:collect="always"
         stdDeviation="1.930743"
         id="feGaussianBlur1172" />
    </filter>
    <clipPath
       clipPathUnits="userSpaceOnUse"
       id="clipPath1446">
      <rect
         style="opacity:1;fill:#35855d;fill-opacity:1;stroke:none;stroke-width:1"
         id="rect1448"
         width="355.40973"
         height="354.76892"
         x="198.70595"
         y="353.87738"
         ry="177.38446" />
    </clipPath>
  </defs>
  <metadata
     id="metadata7">
    <rdf:RDF>
      <cc:Work
         rdf:about="">
        <dc:format>image/svg+xml</dc:format>
        <dc:type
           rdf:resource="http://purl.org/dc/dcmitype/StillImage" />
        <dc:title />
      </cc:Work>
    </rdf:RDF>
  </metadata>
  <g
     inkscape:label="Layer 1"
     inkscape:groupmode="layer"
     id="layer1"
     transform="translate(-155.48758,-310.705)">
    <rect
       transform="matrix(0.84636574,0,0,0.84636574,59.05867,83.156363)"
       ry="202.8403"
       y="338.42154"
       x="181.20412"
       height="405.6806"
       width="406.41339"
       id="rect4413"
       style="opacity:1;fill:#000000;fill-opacity:1;stroke:none;filter:url(#filter4487)" />
    <rect
       style="opacity:1;fill:#35855d;fill-opacity:1;stroke:none"
       id="rect4147"
       width="355.40973"
       height="354.76892"
       x="198.70595"
       y="353.87738"
       ry="177.38446" />
    <path
       inkscape:connector-curvature="0"
       style="opacity:0.15199998;fill:url(#linearGradient5204);fill-opacity:1"
       d="m 370.77148,218.77344 c -28.99609,3.93224 -56.80027,16.62308 -78.43945,36.61718 -25.58478,23.21896 -42.70369,55.6541 -47.65625,90.06641 -4.932,32.97674 0.98669,67.57745 16.97461,96.76758 6.84667,12.65766 15.55387,24.27847 25.69922,34.42383 l 707.10547,707.10746 c 13.48452,13.4846 29.51102,24.3592 47.08982,31.5898 28.9139,12.0464 61.8346,14.0229 91.9199,5.3262 35.6337,-10.1739 66.911,-34.6614 86.043,-66.7227 14.3645,-23.6142 21.3925,-51.3482 21.4336,-79.0195 L 1095.5352,929.52344 c 0.1074,-1.21531 0.2153,-2.43031 0.3437,-3.64453 l -707.10546,-707.10547 -18.00196,0 z"
       transform="translate(-9.5714216,162.07649)"
       id="path4426"
       clip-path="url(#clipPath4170)" />
    <path
       clip-path="none"
       transform="matrix(0.99671879,0,0,1.0304754,-1.1848287,-9.84223)"
       style="opacity:0.3;fill:#000000;fill-opacity:1;filter:url(#filter5545)"
       inkscape:connector-curvature="0"
       id="path4912"
       d="m 361.19927,380.84921 18.00182,0 c -2.7126,25.6532 -0.5754,51.55606 -1.25355,77.33409 -13.17257,0.62416 -26.36568,3.93224 -37.6271,11.04772 -24.06408,14.41822 -38.2436,44.04527 -33.51709,72.11191 4.39771,31.72841 32.07859,57.65207 63.41738,60.71048 26.59173,3.3705 54.27261,-9.59134 69.39743,-31.91565 8.13781,-11.52626 11.77517,-25.674 12.18617,-39.71772 24.14628,-0.16645 48.31311,0.35369 72.45939,-0.52014 -0.0411,27.67133 -7.06921,55.40508 -21.43368,79.01933 -19.13207,32.0613 -50.40921,56.54938 -86.04296,66.72328 -30.08523,8.6967 -63.00637,6.72018 -91.92026,-5.32621 -30.80448,-12.67056 -56.84137,-36.53448 -72.78819,-66.01589 -15.98792,-29.19013 -21.90632,-63.7897 -16.97432,-96.76644 4.95256,-34.41231 22.07073,-66.84811 47.65551,-90.06706 21.63918,-19.9941 49.44336,-32.68546 78.43945,-36.6177 z" />
    <path
       d="m 358.77139,376.13636 18.00182,0 c -2.7126,25.6532 -0.5754,51.55606 -1.25355,77.33409 -13.17257,0.62416 -26.36568,3.93224 -37.6271,11.04772 -24.06408,14.41822 -38.2436,44.04527 -33.51709,72.11191 4.39771,31.72841 32.07859,57.65207 63.41738,60.71048 26.59173,3.3705 54.27261,-9.59134 69.39743,-31.91565 8.13781,-11.52626 11.77517,-25.674 12.18617,-39.71772 24.14628,-0.16645 48.31311,0.35369 72.45939,-0.52014 -0.0411,27.67133 -7.06921,55.40508 -21.43368,79.01933 -19.13207,32.0613 -50.40921,56.54938 -86.04296,66.72328 -30.08523,8.6967 -63.00637,6.72018 -91.92026,-5.32621 -30.80448,-12.67056 -56.84137,-36.53448 -72.78819,-66.01589 -15.98792,-29.19013 -21.90632,-63.7897 -16.97432,-96.76644 4.95256,-34.41231 22.07073,-66.84811 47.65551,-90.06706 21.63918,-19.9941 49.44336,-32.68546 78.43945,-36.6177 z"
       id="path5"
       inkscape:connector-curvature="0"
       style="opacity:1;fill:#4fa077;fill-opacity:1" />
    <path
       inkscape:connector-curvature="0"
       clip-path="url(#clipPath4164)"
       id="path5233"
       transform="translate(-9.5714216,162.07649)"
       d="m 386.81641,214.06055 c -1.25112,39.8299 15.95857,78.82184 43.83398,106.69726 l 707.10551,707.10549 c 13.3321,13.3322 29.105,24.1223 46.4648,31.2441 16.9743,7.0531 35.306,10.9224 53.7188,10.2774 0.021,-25.9028 0,-51.7839 0,-77.66605 L 530.83203,284.61133 c -0.66199,-0.017 -1.32293,-0.0615 -1.98437,-0.0957 l -70.45508,-70.45507 -71.57617,0 z"
       style="opacity:0.15;fill:url(#linearGradient5331);fill-opacity:1" />
    <path
       style="opacity:0.6;fill:#000000;fill-opacity:1;filter:url(#filter5549)"
       inkscape:connector-curvature="0"
       id="path5333"
       d="m 377.24586,382.13636 71.57574,0 c 0.8631,16.06186 6.4116,31.95727 16.89212,44.19091 13.54246,16.54038 34.46239,25.81964 55.54671,26.36058 0,25.88206 0.0205,51.76412 0,77.66698 -18.41282,0.64497 -36.74344,-3.22486 -53.71776,-10.27793 -53.65612,-22.01223 -92.14631,-79.06094 -90.29681,-137.94054 z" />
    <path
       d="m 377.24586,376.13636 71.57574,0 c 0.8631,16.06186 6.4116,31.95727 16.89212,44.19091 13.54246,16.54038 34.46239,25.81964 55.54671,26.36058 0,25.88206 0.0205,51.76412 0,77.66698 -18.41282,0.64497 -36.74344,-3.22486 -53.71776,-10.27793 -53.65612,-22.01223 -92.14631,-79.06094 -90.29681,-137.94054 z"
       id="path7"
       inkscape:connector-curvature="0"
       style="opacity:1;fill:#4fa077;fill-opacity:1" />
    <path
       inkscape:connector-curvature="0"
       id="path4176"
       d=""
       style="fill:#000000" />
    <path
       inkscape:connector-curvature="0"
       id="path4174"
       d=""
       style="fill:#000000" />
    <path
       id="path3229"
       d="m 265.10995,401.82163 216.33305,0 0,216.33305 -216.33305,0 z"
       inkscape:connector-curvature="0"
       style="fill:none" />
    <g
       transform="matrix(0.93750001,0,0,0.93750001,62.124518,341.38505)"
       id="Layer_1" />
    <path
       d="m 437.56458,494.81312 a 22.993669,22.993669 0 0 1 22.99367,22.99367 v 30.39023 a 22.993669,22.993669 0 0 1 -22.99367,22.99367 h -57.40377 c 0,3.13554 2.57272,7.71815 5.70826,7.71815 h 34.49046 v 13.50677 a 22.993669,22.993669 0 0 1 -22.99367,22.99367 h -34.4101 a 22.993669,22.993669 0 0 1 -22.99367,-22.99367 v -30.14899 c 0,-12.7028 10.29087,-22.91332 22.99367,-22.91332 h 42.2087 c 12.70279,0 22.91323,-10.29087 22.91323,-22.99367 v -21.54651 h 9.48689 m -34.4101,94.78863 c -3.2159,0 -5.78862,2.41192 -5.78862,7.15533 0,4.74349 2.57272,5.70826 5.78862,5.70826 a 5.7082185,5.7082185 0 0 0 5.70826,-5.70826 c 0,-4.74341 -2.57272,-7.15533 -5.70826,-7.15533 m -80.39744,-14.39119 c -12.7028,0 -22.99367,-10.29087 -22.99367,-22.99367 v -30.39023 c 0,-12.7028 10.29087,-22.99367 22.99367,-22.99367 h 57.40377 c 0,-3.13546 -2.57272,-7.71815 -5.70818,-7.71815 h -34.49054 v -13.50677 c 0,-12.7028 10.29087,-22.99367 22.99367,-22.99367 h 34.4101 c 12.7028,0 22.99367,10.29087 22.99367,22.99367 v 30.14908 c 0,12.7028 -10.29087,22.91323 -22.99367,22.91323 h -42.20861 c -12.7028,0 -22.91332,10.29087 -22.91332,22.99367 v 21.54651 h -9.48689 m 34.4101,-94.78854 c 3.2159,0 5.78862,-2.41192 5.78862,-7.15542 0,-4.7434 -2.57272,-5.70817 -5.78862,-5.70817 -3.13546,0 -5.70817,0.96477 -5.70817,5.70817 0,4.7435 2.57271,7.15542 5.70817,7.15542 z"
       id="path948"
       style="opacity:0.55533646;fill:#000000;stroke-width:8.03974;filter:url(#filter1170)" />
    <g
       id="g1342"
       style="opacity:0.21552469;"
       clip-path="url(#clipPath1446)">
      <path
         d="m 433.81458,491.06312 a 22.993669,22.993669 0 0 1 22.99367,22.99367 v 30.39023 a 22.993669,22.993669 0 0 1 -22.99367,22.99367 h -57.40377 c 0,3.13554 2.57272,7.71815 5.70826,7.71815 h 34.49046 v 13.50677 a 22.993669,22.993669 0 0 1 -22.99367,22.99367 h -34.4101 a 22.993669,22.993669 0 0 1 -22.99367,-22.99367 v -30.14899 c 0,-12.7028 10.29087,-22.91332 22.99367,-22.91332 h 42.2087 c 12.70279,0 22.91323,-10.29087 22.91323,-22.99367 v -21.54651 h 9.48689 m -34.4101,94.78863 c -3.2159,0 -5.78862,2.41192 -5.78862,7.15533 0,4.74349 2.57272,5.70826 5.78862,5.70826 a 5.7082185,5.7082185 0 0 0 5.70826,-5.70826 c 0,-4.74341 -2.57272,-7.15533 -5.70826,-7.15533 m -80.39744,-14.39119 c -12.7028,0 -22.99367,-10.29087 -22.99367,-22.99367 v -30.39023 c 0,-12.7028 10.29087,-22.99367 22.99367,-22.99367 h 57.40377 c 0,-3.13546 -2.57272,-7.71815 -5.70818,-7.71815 h -34.49054 v -13.50677 c 0,-12.7028 10.29087,-22.99367 22.99367,-22.99367 h 34.4101 c 12.7028,0 22.99367,10.29087 22.99367,22.99367 v 30.14908 c 0,12.7028 -10.29087,22.91323 -22.99367,22.91323 h -42.20861 c -12.7028,0 -22.91332,10.29087 -22.91332,22.99367 v 21.54651 h -9.48689 m 34.4101,-94.78854 c 3.2159,0 5.78862,-2.41192 5.78862,-7.15542 0,-4.7434 -2.57272,-5.70817 -5.78862,-5.70817 -3.13546,0 -5.70817,0.96477 -5.70817,5.70817 0,4.7435 2.57271,7.15542 5.70817,7.15542 z"
         id="path1174"
         style="fill:#000000;stroke-width:8.03974" />
      <g
         style="fill:#000000;stroke-width:8.03974"
         id="g1339">
        <path
           d="M 433.815 491.063 C 439.913 491.063 445.761 493.486 450.074 497.798 L 732.916 780.641 C 728.604 776.328 722.756 773.906 716.657 773.906 Z"
           id="path1229" />
        <path
           d="M 450.074 497.798 C 450.074 497.798 450.074 497.798 450.074 497.798 L 732.916 780.641 C 732.916 780.641 732.916 780.641 732.916 780.641 Z"
           id="path1231" />
        <path
           d="M 450.074 497.798 C 454.386 502.11 456.808 507.958 456.808 514.057 L 739.651 796.9 C 739.651 790.801 737.228 784.953 732.916 780.641 Z"
           id="path1233" />
        <path
           d="M 456.808 514.057 L 456.808 544.447 L 739.651 827.29 L 739.651 796.9 Z"
           id="path1235" />
        <path
           d="M 456.808 544.447 C 456.808 550.545 454.386 556.394 450.074 560.706 L 732.916 843.549 C 737.228 839.237 739.651 833.388 739.651 827.29 Z"
           id="path1237" />
        <path
           d="M 450.074 560.706 C 445.761 565.018 439.913 567.441 433.815 567.441 L 716.657 850.283 C 722.756 850.283 728.604 847.861 732.916 843.549 Z"
           id="path1239" />
        <path
           d="M 433.815 567.441 L 376.411 567.441 L 659.254 850.283 L 716.657 850.283 Z"
           id="path1241" />
        <path
           d="M 376.411 567.441 C 376.411 569.468 377.486 572.1 379.094 573.707 L 661.936 856.55 C 660.329 854.942 659.254 852.311 659.254 850.283 Z"
           id="path1243" />
        <path
           d="M 379.094 573.707 C 379.973 574.586 381.011 575.159 382.119 575.159 L 664.962 858.002 C 663.853 858.002 662.815 857.429 661.936 856.55 Z"
           id="path1245" />
        <path
           d="M 382.119 575.159 L 416.61 575.159 L 699.452 858.002 L 664.962 858.002 Z"
           id="path1247" />
        <path
           d="M 416.61 575.159 L 416.61 588.666 L 699.452 871.508 L 699.452 858.002 Z"
           id="path1249" />
        <path
           d="M 416.61 588.666 C 416.61 594.764 414.187 600.612 409.875 604.925 L 692.718 887.767 C 697.03 883.455 699.452 877.607 699.452 871.508 Z"
           id="path1251" />
        <path
           d="M 409.875 604.925 C 405.563 609.237 399.714 611.659 393.616 611.659 L 676.459 894.502 C 682.557 894.502 688.405 892.079 692.718 887.767 Z"
           id="path1253" />
        <path
           d="M 393.616 611.659 L 359.206 611.659 L 642.048 894.502 L 676.459 894.502 Z"
           id="path1255" />
        <path
           d="M 359.206 611.659 C 353.107 611.659 347.259 609.237 342.947 604.925 L 625.789 887.767 C 630.102 892.079 635.95 894.502 642.048 894.502 Z"
           id="path1257" />
        <path
           d="M 342.947 604.925 C 342.947 604.925 342.947 604.925 342.947 604.925 L 625.789 887.767 C 625.789 887.767 625.789 887.767 625.789 887.767 Z"
           id="path1259" />
        <path
           d="M 342.947 604.925 C 338.635 600.612 336.212 594.764 336.212 588.666 L 619.055 871.508 C 619.055 877.607 621.477 883.455 625.789 887.767 Z"
           id="path1261" />
        <path
           d="M 336.212 588.666 L 336.212 558.517 L 619.055 841.359 L 619.055 871.508 Z"
           id="path1263" />
        <path
           d="M 336.212 558.517 C 336.212 545.814 346.503 535.603 359.206 535.603 L 642.048 818.446 C 629.346 818.446 619.055 828.657 619.055 841.359 Z"
           id="path1265" />
        <path
           d="M 359.206 535.603 L 401.414 535.603 L 684.257 818.446 L 642.048 818.446 Z"
           id="path1267" />
        <path
           d="M 401.414 535.603 C 414.117 535.603 424.328 525.312 424.328 512.61 L 707.17 795.452 C 707.17 808.155 696.96 818.446 684.257 818.446 Z"
           id="path1269" />
        <path
           d="M 424.328 512.61 L 424.328 491.063 L 707.17 773.906 L 707.17 795.452 Z"
           id="path1271" />
        <path
           d="M 424.328 491.063 L 433.815 491.063 L 716.657 773.906 L 707.17 773.906 Z"
           id="path1273" />
        <path
           d="M 399.404 585.852 C 396.189 585.852 393.616 588.264 393.616 593.007 L 676.459 875.85 C 676.459 871.106 679.031 868.694 682.247 868.694 Z"
           id="path1275" />
        <path
           d="M 393.616 593.007 C 393.616 595.135 394.133 596.502 394.995 597.363 L 677.837 880.206 C 676.976 879.345 676.459 877.977 676.459 875.85 Z"
           id="path1277" />
        <path
           d="M 394.995 597.363 C 396.053 598.422 397.631 598.715 399.404 598.715 L 682.247 881.558 C 680.474 881.558 678.896 881.265 677.837 880.206 Z"
           id="path1279" />
        <path
           d="M 399.404 598.715 C 400.918 598.715 402.37 598.114 403.441 597.043 L 686.284 879.886 C 685.213 880.957 683.761 881.558 682.247 881.558 Z"
           id="path1281" />
        <path
           d="M 403.441 597.043 C 404.511 595.973 405.113 594.521 405.113 593.007 L 687.955 875.85 C 687.955 877.364 687.354 878.816 686.284 879.886 Z"
           id="path1283" />
        <path
           d="M 405.113 593.007 C 405.113 590.44 404.359 588.555 403.171 587.367 L 686.013 870.21 C 687.202 871.398 687.955 873.283 687.955 875.85 Z"
           id="path1285" />
        <path
           d="M 403.171 587.367 C 402.163 586.359 400.843 585.852 399.404 585.852 L 682.247 868.694 C 683.686 868.694 685.006 869.202 686.013 870.21 Z"
           id="path1287" />
        <path
           d="M 319.007 571.461 C 312.689 571.461 306.967 568.914 302.811 564.792 L 585.654 847.635 C 589.81 851.757 595.531 854.303 601.85 854.303 Z"
           id="path1289" />
        <path
           d="M 302.811 564.792 C 298.613 560.626 296.013 554.851 296.013 548.467 L 578.856 831.31 C 578.856 837.694 581.456 843.469 585.654 847.635 Z"
           id="path1291" />
        <path
           d="M 296.013 548.467 L 296.013 518.077 L 578.856 800.919 L 578.856 831.31 Z"
           id="path1293" />
        <path
           d="M 296.013 518.077 C 296.013 505.374 306.304 495.083 319.007 495.083 L 601.85 777.926 C 589.147 777.926 578.856 788.217 578.856 800.919 Z"
           id="path1295" />
        <path
           d="M 319.007 495.083 L 376.411 495.083 L 659.254 777.926 L 601.85 777.926 Z"
           id="path1297" />
        <path
           d="M 376.411 495.083 C 376.411 493.056 375.336 490.424 373.728 488.816 L 656.571 771.659 C 658.178 773.267 659.254 775.899 659.254 777.926 Z"
           id="path1299" />
        <path
           d="M 373.728 488.816 C 372.849 487.937 371.811 487.365 370.703 487.365 L 653.545 770.208 C 654.654 770.208 655.692 770.78 656.571 771.659 Z"
           id="path1301" />
        <path
           d="M 370.703 487.365 L 336.212 487.365 L 619.055 770.208 L 653.545 770.208 Z"
           id="path1303" />
        <path
           d="M 336.212 487.365 L 336.212 473.858 L 619.055 756.701 L 619.055 770.208 Z"
           id="path1305" />
        <path
           d="M 336.212 473.858 C 336.212 461.155 346.503 450.864 359.206 450.864 L 642.048 733.707 C 629.346 733.707 619.055 743.998 619.055 756.701 Z"
           id="path1307" />
        <path
           d="M 359.206 450.864 L 393.616 450.864 L 676.459 733.707 L 642.048 733.707 Z"
           id="path1309" />
        <path
           d="M 393.616 450.864 C 406.319 450.864 416.61 461.155 416.61 473.858 L 699.452 756.701 C 699.452 743.998 689.161 733.707 676.459 733.707 Z"
           id="path1311" />
        <path
           d="M 416.61 473.858 L 416.61 504.007 L 699.452 786.85 L 699.452 756.701 Z"
           id="path1313" />
        <path
           d="M 416.61 504.007 C 416.61 516.71 406.319 526.92 393.616 526.92 L 676.459 809.763 C 689.161 809.763 699.452 799.553 699.452 786.85 Z"
           id="path1315" />
        <path
           d="M 393.616 526.92 L 351.407 526.92 L 634.25 809.763 L 676.459 809.763 Z"
           id="path1317" />
        <path
           d="M 351.407 526.92 C 338.704 526.92 328.494 537.211 328.494 549.914 L 611.337 832.757 C 611.337 820.054 621.547 809.763 634.25 809.763 Z"
           id="path1319" />
        <path
           d="M 328.494 549.914 L 328.494 571.461 L 611.337 854.303 L 611.337 832.757 Z"
           id="path1321" />
        <path
           d="M 328.494 571.461 L 319.007 571.461 L 601.85 854.303 L 611.337 854.303 Z"
           id="path1323" />
        <path
           d="M 353.417 476.672 C 356.633 476.672 359.206 474.26 359.206 469.517 L 642.048 752.359 C 642.048 757.103 639.476 759.515 636.26 759.515 Z"
           id="path1325" />
        <path
           d="M 359.206 469.517 C 359.206 467.389 358.688 466.022 357.827 465.16 L 640.67 748.003 C 641.531 748.864 642.048 750.232 642.048 752.359 Z"
           id="path1327" />
        <path
           d="M 357.827 465.16 C 356.768 464.102 355.191 463.808 353.417 463.808 L 636.26 746.651 C 638.033 746.651 639.611 746.945 640.67 748.003 Z"
           id="path1329" />
        <path
           d="M 353.417 463.808 C 350.282 463.808 347.709 464.773 347.709 469.517 L 630.552 752.359 C 630.552 747.616 633.124 746.651 636.26 746.651 Z"
           id="path1331" />
        <path
           d="M 347.709 469.517 C 347.709 472.084 348.463 473.968 349.651 475.157 L 632.494 758 C 631.305 756.811 630.552 754.927 630.552 752.359 Z"
           id="path1333" />
        <path
           d="M 349.651 475.157 C 350.659 476.164 351.979 476.672 353.417 476.672 L 636.26 759.515 C 634.821 759.515 633.501 759.007 632.494 758 Z"
           id="path1335" />
        <path
           d="M 353.417 476.672 L 433.815 491.063 L 716.657 773.906 L 636.26 759.515 Z"
           id="path1337" />
      </g>
    </g>
    <path
       d="m 433.81458,491.06312 a 22.993669,22.993669 0 0 1 22.99367,22.99367 v 30.39023 a 22.993669,22.993669 0 0 1 -22.99367,22.99367 h -57.40377 c 0,3.13554 2.57272,7.71815 5.70826,7.71815 h 34.49046 v 13.50677 a 22.993669,22.993669 0 0 1 -22.99367,22.99367 h -34.4101 a 22.993669,22.993669 0 0 1 -22.99367,-22.99367 v -30.14899 c 0,-12.7028 10.29087,-22.91332 22.99367,-22.91332 h 42.2087 c 12.70279,0 22.91323,-10.29087 22.91323,-22.99367 v -21.54651 h 9.48689 m -34.4101,94.78863 c -3.2159,0 -5.78862,2.41192 -5.78862,7.15533 0,4.74349 2.57272,5.70826 5.78862,5.70826 a 5.7082185,5.7082185 0 0 0 5.70826,-5.70826 c 0,-4.74341 -2.57272,-7.15533 -5.70826,-7.15533 m -80.39744,-14.39119 c -12.7028,0 -22.99367,-10.29087 -22.99367,-22.99367 v -30.39023 c 0,-12.7028 10.29087,-22.99367 22.99367,-22.99367 h 57.40377 c 0,-3.13546 -2.57272,-7.71815 -5.70818,-7.71815 h -34.49054 v -13.50677 c 0,-12.7028 10.29087,-22.99367 22.99367,-22.99367 h 34.4101 c 12.7028,0 22.99367,10.29087 22.99367,22.99367 v 30.14908 c 0,12.7028 -10.29087,22.91323 -22.99367,22.91323 h -42.20861 c -12.7028,0 -22.91332,10.29087 -22.91332,22.99367 v 21.54651 h -9.48689 m 34.4101,-94.78854 c 3.2159,0 5.78862,-2.41192 5.78862,-7.15542 0,-4.7434 -2.57272,-5.70817 -5.78862,-5.70817 -3.13546,0 -5.70817,0.96477 -5.70817,5.70817 0,4.7435 2.57271,7.15542 5.70817,7.15542 z"
       id="path937"
       style="fill:#ffffff;stroke-width:8.03974" />
  </g>
</svg>
