<?xml version="1.0" encoding="UTF-8" standalone="no"?>
<svg
   xmlns:dc="http://purl.org/dc/elements/1.1/"
   xmlns:cc="http://creativecommons.org/ns#"
   xmlns:rdf="http://www.w3.org/1999/02/22-rdf-syntax-ns#"
   xmlns:svg="http://www.w3.org/2000/svg"
   xmlns="http://www.w3.org/2000/svg"
   xmlns:xlink="http://www.w3.org/1999/xlink"
   xmlns:sodipodi="http://sodipodi.sourceforge.net/DTD/sodipodi-0.dtd"
   xmlns:inkscape="http://www.inkscape.org/namespaces/inkscape"
   inkscape:version="1.0.2 (e86c870879, 2021-01-15)"
   version="1.1"
   id="svg2"
   viewBox="0 0 804.09453 602.62696"
   height="170.07472mm"
   width="226.93335mm"
   sodipodi:docname="Logo_circular_python_name.svg"
   inkscape:export-filename="/home/arpagon/arpagon@gmail.com/GraphicDesign/projects/SapianMaterialDesign/Logo_circular_alert_2017-01-26_118dpi.png"
   inkscape:export-xdpi="118.29257"
   inkscape:export-ydpi="118.29257">
  <sodipodi:namedview
     inkscape:window-maximized="1"
     inkscape:window-y="0"
     inkscape:window-x="1920"
     inkscape:window-height="1048"
     inkscape:window-width="1920"
     fit-margin-bottom="5"
     fit-margin-right="5"
     fit-margin-left="5"
     fit-margin-top="5"
     showgrid="false"
     inkscape:current-layer="layer1"
     inkscape:document-units="px"
     inkscape:cy="28.830021"
     inkscape:cx="32.38955"
     inkscape:zoom="0.35355339"
     inkscape:pageshadow="2"
     inkscape:pageopacity="0.0"
     borderopacity="1.0"
     bordercolor="#666666"
     pagecolor="#ffffff"
     id="base"
     inkscape:document-rotation="0" />
  <defs
     id="defs4">
    <clipPath
       clipPathUnits="userSpaceOnUse"
       id="clipPath5165">
      <rect
         ry="33.779934"
         y="328.42154"
         x="173.20412"
         height="405.6806"
         width="406.41339"
         id="rect5167"
         style="opacity:1;fill:#e0e0e0;fill-opacity:1;stroke:none" />
    </clipPath>
    <clipPath
       clipPathUnits="userSpaceOnUse"
       id="clipPath5194">
      <rect
         ry="33.779934"
         y="166.34505"
         x="182.77554"
         height="405.6806"
         width="406.41339"
         id="rect5196"
         style="opacity:1;fill:#e0e0e0;fill-opacity:1;stroke:none" />
    </clipPath>
    <clipPath
       id="clipPath4164"
       clipPathUnits="userSpaceOnUse">
      <rect
         ry="177.38446"
         y="191.80089"
         x="208.27737"
         height="354.76892"
         width="355.40973"
         id="rect4166"
         style="opacity:1;fill:#e0e0e0;fill-opacity:1;stroke:none" />
    </clipPath>
    <clipPath
       id="clipPath4170"
       clipPathUnits="userSpaceOnUse">
      <rect
         ry="177.38446"
         y="191.80089"
         x="208.27737"
         height="354.76892"
         width="355.40973"
         id="rect4172"
         style="opacity:1;fill:#e0e0e0;fill-opacity:1;stroke:none" />
    </clipPath>
    <clipPath
       clipPathUnits="userSpaceOnUse"
       id="clipPath4540">
      <rect
         ry="177.38446"
         y="353.87738"
         x="198.70595"
         height="354.76892"
         width="355.40973"
         id="rect4542"
         style="opacity:1;fill:#35855d;fill-opacity:1;stroke:none" />
    </clipPath>
    <clipPath
       id="clipPath4170-3"
       clipPathUnits="userSpaceOnUse">
      <rect
         ry="177.38446"
         y="191.80089"
         x="208.27737"
         height="354.76892"
         width="355.40973"
         id="rect4172-6"
         style="opacity:1;fill:#e0e0e0;fill-opacity:1;stroke:none" />
    </clipPath>
    <clipPath
       id="clipPath4164-7"
       clipPathUnits="userSpaceOnUse">
      <rect
         ry="177.38446"
         y="191.80089"
         x="208.27737"
         height="354.76892"
         width="355.40973"
         id="rect4166-5"
         style="opacity:1;fill:#e0e0e0;fill-opacity:1;stroke:none" />
    </clipPath>
    <clipPath
       clipPathUnits="userSpaceOnUse"
       id="clipPath2120">
      <rect
         style="opacity:1;fill:#35855d;fill-opacity:1;stroke:none;stroke-width:1"
         id="rect2122"
         width="355.40973"
         height="354.76892"
         x="198.70595"
         y="353.87738"
         ry="177.38446" />
    </clipPath>
    <filter
       height="1.1345214"
       y="-0.06726069"
       width="1.1342788"
       x="-0.067139417"
       id="filter4487"
       style="color-interpolation-filters:sRGB"
       inkscape:collect="always">
      <feGaussianBlur
         id="feGaussianBlur4489"
         stdDeviation="11.369316"
         inkscape:collect="always" />
    </filter>
    <linearGradient
       inkscape:collect="always"
       xlink:href="#linearGradient5198"
       id="linearGradient5204"
       x1="341.43155"
       y1="322.08112"
       x2="555.58392"
       y2="542.29437"
       gradientUnits="userSpaceOnUse" />
    <linearGradient
       inkscape:collect="always"
       id="linearGradient5198">
      <stop
         style="stop-color:#000000;stop-opacity:1;"
         offset="0"
         id="stop5200" />
      <stop
         style="stop-color:#000000;stop-opacity:0;"
         offset="1"
         id="stop5202" />
    </linearGradient>
    <clipPath
       id="clipPath4170-5"
       clipPathUnits="userSpaceOnUse">
      <rect
         ry="177.38446"
         y="191.80089"
         x="208.27737"
         height="354.76892"
         width="355.40973"
         id="rect4172-62"
         style="opacity:1;fill:#e0e0e0;fill-opacity:1;stroke:none" />
    </clipPath>
    <filter
       height="1.1181884"
       y="-0.059094191"
       width="1.1219673"
       x="-0.060983624"
       id="filter5545"
       style="color-interpolation-filters:sRGB"
       inkscape:collect="always">
      <feGaussianBlur
         id="feGaussianBlur5547"
         stdDeviation="7.3904545"
         inkscape:collect="always" />
    </filter>
    <linearGradient
       gradientUnits="userSpaceOnUse"
       y2="497"
       x2="682"
       y1="246"
       x1="440"
       id="linearGradient5331"
       xlink:href="#linearGradient5198"
       inkscape:collect="always" />
    <clipPath
       id="clipPath4164-9"
       clipPathUnits="userSpaceOnUse">
      <rect
         ry="177.38446"
         y="191.80089"
         x="208.27737"
         height="354.76892"
         width="355.40973"
         id="rect4166-1"
         style="opacity:1;fill:#e0e0e0;fill-opacity:1;stroke:none" />
    </clipPath>
    <filter
       height="1.2366008"
       y="-0.11830041"
       width="1.2434983"
       x="-0.12174914"
       id="filter5549"
       style="color-interpolation-filters:sRGB"
       inkscape:collect="always">
      <feGaussianBlur
         id="feGaussianBlur5551"
         stdDeviation="7.3093913"
         inkscape:collect="always" />
    </filter>
    <filter
       inkscape:collect="always"
       style="color-interpolation-filters:sRGB"
       id="filter1170"
       x="-0.028817978"
       width="1.057636"
       y="-0.028817978"
       height="1.057636">
      <feGaussianBlur
         inkscape:collect="always"
         stdDeviation="1.930743"
         id="feGaussianBlur1172" />
    </filter>
    <clipPath
       clipPathUnits="userSpaceOnUse"
       id="clipPath1446">
      <rect
         style="opacity:1;fill:#35855d;fill-opacity:1;stroke:none;stroke-width:1"
         id="rect1448"
         width="355.40973"
         height="354.76892"
         x="198.70595"
         y="353.87738"
         ry="177.38446" />
    </clipPath>
  </defs>
  <metadata
     id="metadata7">
    <rdf:RDF>
      <cc:Work
         rdf:about="">
        <dc:format>image/svg+xml</dc:format>
        <dc:type
           rdf:resource="http://purl.org/dc/dcmitype/StillImage" />
        <dc:title />
      </cc:Work>
    </rdf:RDF>
  </metadata>
  <g
     inkscape:label="Layer 1"
     inkscape:groupmode="layer"
     id="layer1"
     transform="translate(25.636469,-333.98569)">
    <path
       inkscape:connector-curvature="0"
       id="path4176"
       d=""
       style="fill:#000000" />
    <path
       inkscape:connector-curvature="0"
       id="path4174"
       d=""
       style="fill:#000000" />
    <text
       xml:space="preserve"
       style="font-style:normal;font-variant:normal;font-weight:normal;font-stretch:normal;line-height:0%;font-family:'Roboto Condensed';-inkscape-font-specification:'Roboto Condensed, ';letter-spacing:0px;word-spacing:0px;fill:#305030;fill-opacity:1;stroke:none;stroke-width:1px;stroke-linecap:butt;stroke-linejoin:miter;stroke-opacity:1"
       x="156.14267"
       y="835.40088"
       id="text4199"><tspan
         sodipodi:role="line"
         id="tspan4201"
         x="156.14267"
         y="835.40088"
         style="font-style:normal;font-variant:normal;font-weight:bold;font-stretch:normal;font-size:134.76px;line-height:1.25;font-family:'Averia Libre';-inkscape-font-specification:'Averia Libre Bold';fill:#305030;fill-opacity:1">Python</tspan></text>
    <text
       xml:space="preserve"
       style="font-style:normal;font-weight:normal;line-height:0%;font-family:sans-serif;letter-spacing:0px;word-spacing:0px;fill:#35ac55;fill-opacity:1;stroke:none;stroke-width:1px;stroke-linecap:butt;stroke-linejoin:miter;stroke-opacity:1"
       x="46.828571"
       y="913.73865"
       id="text4212"><tspan
         sodipodi:role="line"
         id="tspan4214"
         x="46.828571"
         y="913.73865"
         style="font-style:normal;font-variant:normal;font-weight:bold;font-stretch:normal;font-size:81.25px;line-height:1.25;font-family:'Averia Libre';-inkscape-font-specification:'Averia Libre Bold';fill:#35ac55;fill-opacity:1">Sapian Template</tspan></text>
    <g
       id="g1511"
       transform="translate(364.92415,482.75265)">
      <rect
         transform="matrix(0.84636574,0,0,0.84636574,-313.8655,-389.28482)"
         ry="202.8403"
         y="338.42154"
         x="181.20412"
         height="405.6806"
         width="406.41339"
         id="rect4413"
         style="fill:#000000;fill-opacity:1;stroke:none;filter:url(#filter4487)" />
      <rect
         style="fill:#35855d;fill-opacity:1;stroke:none"
         id="rect4147"
         width="355.40973"
         height="354.76892"
         x="-174.21822"
         y="-118.5638"
         ry="177.38446" />
      <path
         inkscape:connector-curvature="0"
         style="opacity:0.152;fill:url(#linearGradient5204);fill-opacity:1"
         d="m 370.77148,218.77344 c -28.99609,3.93224 -56.80027,16.62308 -78.43945,36.61718 -25.58478,23.21896 -42.70369,55.6541 -47.65625,90.06641 -4.932,32.97674 0.98669,67.57745 16.97461,96.76758 6.84667,12.65766 15.55387,24.27847 25.69922,34.42383 l 707.10547,707.10746 c 13.48452,13.4846 29.51102,24.3592 47.08982,31.5898 28.9139,12.0464 61.8346,14.0229 91.9199,5.3262 35.6337,-10.1739 66.911,-34.6614 86.043,-66.7227 14.3645,-23.6142 21.3925,-51.3482 21.4336,-79.0195 L 1095.5352,929.52344 c 0.1074,-1.21531 0.2153,-2.43031 0.3437,-3.64453 L 388.77344,218.77344 Z"
         transform="translate(-382.49559,-310.36469)"
         id="path4426"
         clip-path="url(#clipPath4170-5)" />
      <path
         clip-path="none"
         transform="matrix(0.99671879,0,0,1.0304754,-374.109,-482.28341)"
         style="opacity:0.3;fill:#000000;fill-opacity:1;filter:url(#filter5545)"
         inkscape:connector-curvature="0"
         id="path4912"
         d="m 361.19927,380.84921 h 18.00182 c -2.7126,25.6532 -0.5754,51.55606 -1.25355,77.33409 -13.17257,0.62416 -26.36568,3.93224 -37.6271,11.04772 -24.06408,14.41822 -38.2436,44.04527 -33.51709,72.11191 4.39771,31.72841 32.07859,57.65207 63.41738,60.71048 26.59173,3.3705 54.27261,-9.59134 69.39743,-31.91565 8.13781,-11.52626 11.77517,-25.674 12.18617,-39.71772 24.14628,-0.16645 48.31311,0.35369 72.45939,-0.52014 -0.0411,27.67133 -7.06921,55.40508 -21.43368,79.01933 -19.13207,32.0613 -50.40921,56.54938 -86.04296,66.72328 -30.08523,8.6967 -63.00637,6.72018 -91.92026,-5.32621 -30.80448,-12.67056 -56.84137,-36.53448 -72.78819,-66.01589 -15.98792,-29.19013 -21.90632,-63.7897 -16.97432,-96.76644 4.95256,-34.41231 22.07073,-66.84811 47.65551,-90.06706 21.63918,-19.9941 49.44336,-32.68546 78.43945,-36.6177 z" />
      <path
         d="M -14.15278,-96.30482 H 3.84904 c -2.7126,25.6532 -0.5754,51.55606 -1.25355,77.33409 -13.17257,0.62416 -26.36568,3.93224 -37.6271,11.04772 -24.06408,14.41822 -38.2436,44.04527 -33.51709,72.11191 4.39771,31.72841 32.07859,57.65207 63.41738,60.71048 26.59173,3.3705 54.27261,-9.59134 69.39743,-31.91565 8.13781,-11.52626 11.77517,-25.674 12.18617,-39.71772 24.14628,-0.16645 48.31311,0.35369 72.45939,-0.52014 -0.0411,27.67133 -7.06921,55.40508 -21.43368,79.01933 -19.13207,32.0613 -50.40921,56.54938 -86.04296,66.72328 -30.08523,8.6967 -63.00637,6.72018 -91.92026,-5.32621 -30.80448,-12.67056 -56.84137,-36.53448 -72.78819,-66.01589 -15.98792,-29.19013 -21.90632,-63.7897 -16.97432,-96.76644 4.95256,-34.41231 22.07073,-66.84811 47.65551,-90.06706 21.63918,-19.9941 49.44336,-32.68546 78.43945,-36.6177 z"
         id="path5"
         inkscape:connector-curvature="0"
         style="fill:#4fa077;fill-opacity:1" />
      <path
         inkscape:connector-curvature="0"
         clip-path="url(#clipPath4164-9)"
         id="path5233"
         transform="translate(-382.49559,-310.36469)"
         d="m 386.81641,214.06055 c -1.25112,39.8299 15.95857,78.82184 43.83398,106.69726 l 707.10551,707.10549 c 13.3321,13.3322 29.105,24.1223 46.4648,31.2441 16.9743,7.0531 35.306,10.9224 53.7188,10.2774 0.021,-25.9028 0,-51.7839 0,-77.66605 L 530.83203,284.61133 c -0.66199,-0.017 -1.32293,-0.0615 -1.98437,-0.0957 l -70.45508,-70.45507 h -71.57617 z"
         style="opacity:0.15;fill:url(#linearGradient5331);fill-opacity:1" />
      <path
         style="opacity:0.6;fill:#000000;fill-opacity:1;filter:url(#filter5549)"
         inkscape:connector-curvature="0"
         id="path5333"
         d="m 4.32169,-90.30482 h 71.57574 c 0.8631,16.06186 6.4116,31.95727 16.89212,44.19091 13.54246,16.54038 34.46239,25.81964 55.54671,26.36058 0,25.88206 0.0205,51.76412 0,77.66698 C 129.92344,58.55862 111.59282,54.68879 94.6185,47.63572 40.96238,25.62349 2.47219,-31.42522 4.32169,-90.30482 Z" />
      <path
         d="m 4.32169,-96.30482 h 71.57574 c 0.8631,16.06186 6.4116,31.95727 16.89212,44.19091 13.54246,16.54038 34.46239,25.81964 55.54671,26.36058 0,25.88206 0.0205,51.76412 0,77.66698 C 129.92344,52.55862 111.59282,48.68879 94.6185,41.63572 40.96238,19.62349 2.47219,-37.42522 4.32169,-96.30482 Z"
         id="path7"
         inkscape:connector-curvature="0"
         style="fill:#4fa077;fill-opacity:1" />
      <path
         id="path3229"
         d="M -107.81422,-70.61955 H 108.51883 V 145.7135 h -216.33305 z"
         inkscape:connector-curvature="0"
         style="fill:none" />
      <path
         d="M 64.64041,22.37194 A 22.993669,22.993669 0 0 1 87.63408,45.36561 V 75.75584 A 22.993669,22.993669 0 0 1 64.64041,98.74951 H 7.23664 c 0,3.13554 2.57272,7.71815 5.70826,7.71815 h 34.49046 v 13.50677 A 22.993669,22.993669 0 0 1 24.44169,142.9681 H -9.96841 A 22.993669,22.993669 0 0 1 -32.96208,119.97443 V 89.82544 c 0,-12.7028 10.29087,-22.91332 22.99367,-22.91332 h 42.2087 c 12.70279,0 22.91323,-10.29087 22.91323,-22.99367 V 22.37194 h 9.48689 m -34.4101,94.78863 c -3.2159,0 -5.78862,2.41192 -5.78862,7.15533 0,4.74349 2.57272,5.70826 5.78862,5.70826 a 5.7082185,5.7082185 0 0 0 5.70826,-5.70826 c 0,-4.74341 -2.57272,-7.15533 -5.70826,-7.15533 m -80.39744,-14.39119 c -12.7028,0 -22.99367,-10.29087 -22.99367,-22.99367 V 49.38548 c 0,-12.7028 10.29087,-22.99367 22.99367,-22.99367 H 7.23664 c 0,-3.13546 -2.57272,-7.71815 -5.70818,-7.71815 H -32.96208 V 5.16689 c 0,-12.7028 10.29087,-22.99367 22.99367,-22.99367 h 34.4101 c 12.7028,0 22.99367,10.29087 22.99367,22.99367 v 30.14908 c 0,12.7028 -10.29087,22.91323 -22.99367,22.91323 h -42.20861 c -12.7028,0 -22.91332,10.29087 -22.91332,22.99367 v 21.54651 h -9.48689 m 34.4101,-94.78854 c 3.2159,0 5.78862,-2.41192 5.78862,-7.15542 0,-4.7434 -2.57272,-5.70817 -5.78862,-5.70817 -3.13546,0 -5.70817,0.96477 -5.70817,5.70817 0,4.7435 2.57271,7.15542 5.70817,7.15542 z"
         id="path948"
         style="opacity:0.555336;fill:#000000;stroke-width:8.03974;filter:url(#filter1170)" />
      <g
         id="g1342"
         style="opacity:0.215525"
         clip-path="url(#clipPath1446)"
         transform="translate(-372.92417,-472.44118)">
        <path
           d="m 433.81458,491.06312 a 22.993669,22.993669 0 0 1 22.99367,22.99367 v 30.39023 a 22.993669,22.993669 0 0 1 -22.99367,22.99367 h -57.40377 c 0,3.13554 2.57272,7.71815 5.70826,7.71815 h 34.49046 v 13.50677 a 22.993669,22.993669 0 0 1 -22.99367,22.99367 h -34.4101 a 22.993669,22.993669 0 0 1 -22.99367,-22.99367 v -30.14899 c 0,-12.7028 10.29087,-22.91332 22.99367,-22.91332 h 42.2087 c 12.70279,0 22.91323,-10.29087 22.91323,-22.99367 v -21.54651 h 9.48689 m -34.4101,94.78863 c -3.2159,0 -5.78862,2.41192 -5.78862,7.15533 0,4.74349 2.57272,5.70826 5.78862,5.70826 a 5.7082185,5.7082185 0 0 0 5.70826,-5.70826 c 0,-4.74341 -2.57272,-7.15533 -5.70826,-7.15533 m -80.39744,-14.39119 c -12.7028,0 -22.99367,-10.29087 -22.99367,-22.99367 v -30.39023 c 0,-12.7028 10.29087,-22.99367 22.99367,-22.99367 h 57.40377 c 0,-3.13546 -2.57272,-7.71815 -5.70818,-7.71815 h -34.49054 v -13.50677 c 0,-12.7028 10.29087,-22.99367 22.99367,-22.99367 h 34.4101 c 12.7028,0 22.99367,10.29087 22.99367,22.99367 v 30.14908 c 0,12.7028 -10.29087,22.91323 -22.99367,22.91323 h -42.20861 c -12.7028,0 -22.91332,10.29087 -22.91332,22.99367 v 21.54651 h -9.48689 m 34.4101,-94.78854 c 3.2159,0 5.78862,-2.41192 5.78862,-7.15542 0,-4.7434 -2.57272,-5.70817 -5.78862,-5.70817 -3.13546,0 -5.70817,0.96477 -5.70817,5.70817 0,4.7435 2.57271,7.15542 5.70817,7.15542 z"
           id="path1174"
           style="fill:#000000;stroke-width:8.03974" />
        <g
           style="fill:#000000;stroke-width:8.03974"
           id="g1339">
          <path
             d="m 433.815,491.063 c 6.098,0 11.946,2.423 16.259,6.735 l 282.842,282.843 c -4.312,-4.313 -10.16,-6.735 -16.259,-6.735 z"
             id="path1229" />
          <path
             d="m 450.074,497.798 c 0,0 0,0 0,0 l 282.842,282.843 c 0,0 0,0 0,0 z"
             id="path1231" />
          <path
             d="m 450.074,497.798 c 4.312,4.312 6.734,10.16 6.734,16.259 L 739.651,796.9 c 0,-6.099 -2.423,-11.947 -6.735,-16.259 z"
             id="path1233" />
          <path
             d="m 456.808,514.057 v 30.39 L 739.651,827.29 V 796.9 Z"
             id="path1235" />
          <path
             d="m 456.808,544.447 c 0,6.098 -2.422,11.947 -6.734,16.259 l 282.842,282.843 c 4.312,-4.312 6.735,-10.161 6.735,-16.259 z"
             id="path1237" />
          <path
             d="m 450.074,560.706 c -4.313,4.312 -10.161,6.735 -16.259,6.735 l 282.842,282.842 c 6.099,0 11.947,-2.422 16.259,-6.734 z"
             id="path1239" />
          <path
             d="m 433.815,567.441 h -57.404 l 282.843,282.842 h 57.403 z"
             id="path1241" />
          <path
             d="m 376.411,567.441 c 0,2.027 1.075,4.659 2.683,6.266 L 661.936,856.55 c -1.607,-1.608 -2.682,-4.239 -2.682,-6.267 z"
             id="path1243" />
          <path
             d="m 379.094,573.707 c 0.879,0.879 1.917,1.452 3.025,1.452 l 282.843,282.843 c -1.109,0 -2.147,-0.573 -3.026,-1.452 z"
             id="path1245" />
          <path
             d="m 382.119,575.159 h 34.491 l 282.842,282.843 h -34.49 z"
             id="path1247" />
          <path
             d="m 416.61,575.159 v 13.507 l 282.842,282.842 v -13.506 z"
             id="path1249" />
          <path
             d="m 416.61,588.666 c 0,6.098 -2.423,11.946 -6.735,16.259 l 282.843,282.842 c 4.312,-4.312 6.734,-10.16 6.734,-16.259 z"
             id="path1251" />
          <path
             d="m 409.875,604.925 c -4.312,4.312 -10.161,6.734 -16.259,6.734 l 282.843,282.843 c 6.098,0 11.946,-2.423 16.259,-6.735 z"
             id="path1253" />
          <path
             d="m 393.616,611.659 h -34.41 l 282.842,282.843 h 34.411 z"
             id="path1255" />
          <path
             d="m 359.206,611.659 c -6.099,0 -11.947,-2.422 -16.259,-6.734 l 282.842,282.842 c 4.313,4.312 10.161,6.735 16.259,6.735 z"
             id="path1257" />
          <path
             d="m 342.947,604.925 c 0,0 0,0 0,0 l 282.842,282.842 c 0,0 0,0 0,0 z"
             id="path1259" />
          <path
             d="m 342.947,604.925 c -4.312,-4.313 -6.735,-10.161 -6.735,-16.259 l 282.843,282.842 c 0,6.099 2.422,11.947 6.734,16.259 z"
             id="path1261" />
          <path
             d="m 336.212,588.666 v -30.149 l 282.843,282.842 v 30.149 z"
             id="path1263" />
          <path
             d="m 336.212,558.517 c 0,-12.703 10.291,-22.914 22.994,-22.914 l 282.842,282.843 c -12.702,0 -22.993,10.211 -22.993,22.913 z"
             id="path1265" />
          <path
             d="m 359.206,535.603 h 42.208 l 282.843,282.843 h -42.209 z"
             id="path1267" />
          <path
             d="m 401.414,535.603 c 12.703,0 22.914,-10.291 22.914,-22.993 L 707.17,795.452 c 0,12.703 -10.21,22.994 -22.913,22.994 z"
             id="path1269" />
          <path
             d="M 424.328,512.61 V 491.063 L 707.17,773.906 v 21.546 z"
             id="path1271" />
          <path
             d="m 424.328,491.063 h 9.487 l 282.842,282.843 h -9.487 z"
             id="path1273" />
          <path
             d="m 399.404,585.852 c -3.215,0 -5.788,2.412 -5.788,7.155 L 676.459,875.85 c 0,-4.744 2.572,-7.156 5.788,-7.156 z"
             id="path1275" />
          <path
             d="m 393.616,593.007 c 0,2.128 0.517,3.495 1.379,4.356 l 282.842,282.843 c -0.861,-0.861 -1.378,-2.229 -1.378,-4.356 z"
             id="path1277" />
          <path
             d="m 394.995,597.363 c 1.058,1.059 2.636,1.352 4.409,1.352 l 282.843,282.843 c -1.773,0 -3.351,-0.293 -4.41,-1.352 z"
             id="path1279" />
          <path
             d="m 399.404,598.715 c 1.514,0 2.966,-0.601 4.037,-1.672 l 282.843,282.843 c -1.071,1.071 -2.523,1.672 -4.037,1.672 z"
             id="path1281" />
          <path
             d="m 403.441,597.043 c 1.07,-1.07 1.672,-2.522 1.672,-4.036 L 687.955,875.85 c 0,1.514 -0.601,2.966 -1.671,4.036 z"
             id="path1283" />
          <path
             d="m 405.113,593.007 c 0,-2.567 -0.754,-4.452 -1.942,-5.64 L 686.013,870.21 c 1.189,1.188 1.942,3.073 1.942,5.64 z"
             id="path1285" />
          <path
             d="m 403.171,587.367 c -1.008,-1.008 -2.328,-1.515 -3.767,-1.515 l 282.843,282.842 c 1.439,0 2.759,0.508 3.766,1.516 z"
             id="path1287" />
          <path
             d="m 319.007,571.461 c -6.318,0 -12.04,-2.547 -16.196,-6.669 l 282.843,282.843 c 4.156,4.122 9.877,6.668 16.196,6.668 z"
             id="path1289" />
          <path
             d="m 302.811,564.792 c -4.198,-4.166 -6.798,-9.941 -6.798,-16.325 L 578.856,831.31 c 0,6.384 2.6,12.159 6.798,16.325 z"
             id="path1291" />
          <path
             d="m 296.013,548.467 v -30.39 l 282.843,282.842 v 30.391 z"
             id="path1293" />
          <path
             d="m 296.013,518.077 c 0,-12.703 10.291,-22.994 22.994,-22.994 L 601.85,777.926 c -12.703,0 -22.994,10.291 -22.994,22.993 z"
             id="path1295" />
          <path
             d="m 319.007,495.083 h 57.404 L 659.254,777.926 H 601.85 Z"
             id="path1297" />
          <path
             d="m 376.411,495.083 c 0,-2.027 -1.075,-4.659 -2.683,-6.267 l 282.843,282.843 c 1.607,1.608 2.683,4.24 2.683,6.267 z"
             id="path1299" />
          <path
             d="m 373.728,488.816 c -0.879,-0.879 -1.917,-1.451 -3.025,-1.451 l 282.842,282.843 c 1.109,0 2.147,0.572 3.026,1.451 z"
             id="path1301" />
          <path
             d="m 370.703,487.365 h -34.491 l 282.843,282.843 h 34.49 z"
             id="path1303" />
          <path
             d="m 336.212,487.365 v -13.507 l 282.843,282.843 v 13.507 z"
             id="path1305" />
          <path
             d="m 336.212,473.858 c 0,-12.703 10.291,-22.994 22.994,-22.994 l 282.842,282.843 c -12.702,0 -22.993,10.291 -22.993,22.994 z"
             id="path1307" />
          <path
             d="m 359.206,450.864 h 34.41 l 282.843,282.843 h -34.411 z"
             id="path1309" />
          <path
             d="m 393.616,450.864 c 12.703,0 22.994,10.291 22.994,22.994 l 282.842,282.843 c 0,-12.703 -10.291,-22.994 -22.993,-22.994 z"
             id="path1311" />
          <path
             d="m 416.61,473.858 v 30.149 L 699.452,786.85 v -30.149 z"
             id="path1313" />
          <path
             d="m 416.61,504.007 c 0,12.703 -10.291,22.913 -22.994,22.913 l 282.843,282.843 c 12.702,0 22.993,-10.21 22.993,-22.913 z"
             id="path1315" />
          <path
             d="M 393.616,526.92 H 351.407 L 634.25,809.763 h 42.209 z"
             id="path1317" />
          <path
             d="m 351.407,526.92 c -12.703,0 -22.913,10.291 -22.913,22.994 l 282.843,282.843 c 0,-12.703 10.21,-22.994 22.913,-22.994 z"
             id="path1319" />
          <path
             d="m 328.494,549.914 v 21.547 l 282.843,282.842 v -21.546 z"
             id="path1321" />
          <path
             d="m 328.494,571.461 h -9.487 L 601.85,854.303 h 9.487 z"
             id="path1323" />
          <path
             d="m 353.417,476.672 c 3.216,0 5.789,-2.412 5.789,-7.155 l 282.842,282.842 c 0,4.744 -2.572,7.156 -5.788,7.156 z"
             id="path1325" />
          <path
             d="m 359.206,469.517 c 0,-2.128 -0.518,-3.495 -1.379,-4.357 L 640.67,748.003 c 0.861,0.861 1.378,2.229 1.378,4.356 z"
             id="path1327" />
          <path
             d="m 357.827,465.16 c -1.059,-1.058 -2.636,-1.352 -4.41,-1.352 L 636.26,746.651 c 1.773,0 3.351,0.294 4.41,1.352 z"
             id="path1329" />
          <path
             d="m 353.417,463.808 c -3.135,0 -5.708,0.965 -5.708,5.709 l 282.843,282.842 c 0,-4.743 2.572,-5.708 5.708,-5.708 z"
             id="path1331" />
          <path
             d="m 347.709,469.517 c 0,2.567 0.754,4.451 1.942,5.64 L 632.494,758 c -1.189,-1.189 -1.942,-3.073 -1.942,-5.641 z"
             id="path1333" />
          <path
             d="m 349.651,475.157 c 1.008,1.007 2.328,1.515 3.766,1.515 L 636.26,759.515 c -1.439,0 -2.759,-0.508 -3.766,-1.515 z"
             id="path1335" />
          <path
             d="m 353.417,476.672 80.398,14.391 282.842,282.843 -80.397,-14.391 z"
             id="path1337" />
        </g>
      </g>
      <path
         d="M 60.89041,18.62194 A 22.993669,22.993669 0 0 1 83.88408,41.61561 V 72.00584 A 22.993669,22.993669 0 0 1 60.89041,94.99951 H 3.48664 c 0,3.13554 2.57272,7.71815 5.70826,7.71815 h 34.49046 v 13.50677 A 22.993669,22.993669 0 0 1 20.69169,139.2181 h -34.4101 A 22.993669,22.993669 0 0 1 -36.71208,116.22443 V 86.07544 c 0,-12.7028 10.29087,-22.91332 22.99367,-22.91332 h 42.2087 c 12.70279,0 22.91323,-10.29087 22.91323,-22.99367 V 18.62194 h 9.48689 m -34.4101,94.78863 c -3.2159,0 -5.78862,2.41192 -5.78862,7.15533 0,4.74349 2.57272,5.70826 5.78862,5.70826 a 5.7082185,5.7082185 0 0 0 5.70826,-5.70826 c 0,-4.74341 -2.57272,-7.15533 -5.70826,-7.15533 M -53.91713,99.01938 c -12.7028,0 -22.99367,-10.29087 -22.99367,-22.99367 V 45.63548 c 0,-12.7028 10.29087,-22.99367 22.99367,-22.99367 H 3.48664 c 0,-3.13546 -2.57272,-7.71815 -5.70818,-7.71815 H -36.71208 V 1.41689 c 0,-12.7028 10.29087,-22.99367 22.99367,-22.99367 h 34.4101 c 12.7028,0 22.99367,10.29087 22.99367,22.99367 v 30.14908 c 0,12.7028 -10.29087,22.91323 -22.99367,22.91323 h -42.20861 c -12.7028,0 -22.91332,10.29087 -22.91332,22.99367 v 21.54651 h -9.48689 m 34.4101,-94.78854 c 3.2159,0 5.78862,-2.41192 5.78862,-7.15542 0,-4.7434 -2.57272,-5.70817 -5.78862,-5.70817 -3.13546,0 -5.70817,0.96477 -5.70817,5.70817 0,4.7435 2.57271,7.15542 5.70817,7.15542 z"
         id="path937"
         style="fill:#ffffff;stroke-width:8.03974" />
    </g>
  </g>
</svg>
